<svg xmlns="http://www.w3.org/2000/svg" width="256" height="256" viewBox="0 0 100 100"><rect width="100" height="100" rx="50" fill="#35353f"></rect><path fill="#fff" d="M46.51 70.21L46.51 29.79L48.27 29.79L48.27 70.21L46.51 70.21ZM7.84 70.21L7.84 29.79L9.59 29.79L9.59 70.21L7.84 70.21ZM42.99 70.21L42.99 29.79L44.75 29.79L44.75 70.21L42.99 70.21ZM39.48 70.21L39.48 29.79L41.24 29.79L41.24 70.21L39.48 70.21ZM35.96 45.58L35.96 29.79L37.72 29.79L37.72 70.21L35.96 70.21L35.96 54.37L20.14 54.37L20.14 70.21L18.38 70.21L18.38 29.79L20.14 29.79L20.14 45.58L35.96 45.58ZM14.87 70.21L14.87 29.79L16.63 29.79L16.63 70.21L14.87 70.21ZM11.35 70.21L11.35 29.79L13.11 29.79L13.11 70.21L11.35 70.21ZM20.14 52.61L35.96 52.61L35.96 50.85L20.14 50.85L20.14 52.61ZM20.14 49.10L35.96 49.10L35.96 47.34L20.14 47.34L20.14 49.10ZM81.62 29.79L81.62 50.76L79.86 47.85L79.86 29.79L81.62 29.79ZM85.13 29.79L85.13 56.52L83.37 53.56L83.37 29.79L85.13 29.79ZM88.65 29.79L88.65 62.35L86.89 59.38L86.89 29.79L88.65 29.79ZM63.45 70.21L63.45 49.24L65.21 52.15L65.21 70.21L63.45 70.21ZM59.94 70.21L59.94 43.48L61.69 46.44L61.69 70.21L59.94 70.21ZM56.42 70.21L56.42 37.65L58.18 40.63L58.18 70.21L56.42 70.21ZM81.88 70.21L57.03 29.79L59.08 29.79L83.94 70.21L81.88 70.21ZM85.99 70.21L61.18 29.79L63.26 29.79L88.09 70.21L85.99 70.21ZM90.09 70.21L65.31 29.79L67.36 29.79L90.41 67.36L90.41 29.79L92.16 29.79L92.16 70.21Q92.16 70.21 90.09 70.21L90.09 70.21ZM77.76 70.21L54.66 32.64L54.66 70.21L52.91 70.21L52.91 29.79Q52.91 29.79 55.00 29.79L55.00 29.79L79.79 70.21L77.76 70.21Z"></path></svg>